<?xml version="1.0" encoding="utf-8"?>
<!-- Generator: Adobe Illustrator 25.3.1, SVG Export Plug-In . SVG Version: 6.00 Build 0)  -->
<svg version="1.1" id="Layer_1" xmlns="http://www.w3.org/2000/svg" xmlns:xlink="http://www.w3.org/1999/xlink" x="0px" y="0px"
	 viewBox="0 0 200 200" style="enable-background:new 0 0 200 200;" xml:space="preserve">
<style type="text/css">
	.st0{fill:#9A8C98;}
	.st1{fill:#3A5897;}
</style>
<rect class="st0" width="200" height="200"/>
<g>
	<path class="st1" d="M98.5,33.6C60.1,33.6,29,64.7,29,103.1s31.1,69.5,69.5,69.5s69.5-31.1,69.5-69.5S136.9,33.6,98.5,33.6z
		 M121.3,107c-2.8,0-5.3,0-8.6-0.1c-0.5,0-9,0.1-9,0.3c0.6,3.8-0.3,7.8-0.2,11.6c0,2.2,0.7,22.3,0.4,29.6l-16.7,0.2
		c-0.1-6.3,0.2-12.8,0-21.1c-0.1-1.7-0.1-19.7-0.3-20.6c0,0-7.4,0.1-10.9,0.1c0,0,0-6.6,0-8.9c0-2.2,0-4.4,0-6.6
		c0,0,8.6-0.5,11.1-0.7c0,0,0.3-8.4,0.6-11.1c0.4-3.1,0.4-6.3,2.3-9c3.3-5,6.7-9.5,12.8-10.8c2.3-0.5,17.7-3.5,18.2-1l-0.3,14.9
		c-4.2,0-9.2-0.4-13.4,2.7c-2.4,1.8-3,3.2-3.3,6.1c-0.1,1.7-0.2,8.5-0.2,8.5c2.2,0.3,5.6,0.2,8,0c2.7-0.2,9.7,0.5,9.7,0.5
		C121.5,96.1,121.3,106.5,121.3,107z"/>
</g>
</svg>
