<?xml version="1.0" encoding="utf-8"?>
<!-- Generator: Adobe Illustrator 25.3.1, SVG Export Plug-In . SVG Version: 6.00 Build 0)  -->
<svg version="1.1" id="Layer_1" xmlns="http://www.w3.org/2000/svg" xmlns:xlink="http://www.w3.org/1999/xlink" x="0px" y="0px"
	 viewBox="0 0 200 200" style="enable-background:new 0 0 200 200;" xml:space="preserve">
<style type="text/css">
	.st0{fill:#9A8C98;}
	.st1{fill:url(#SVGID_1_);}
	.st2{fill:url(#SVGID_2_);}
	.st3{fill:url(#SVGID_3_);}
	.st4{fill:url(#SVGID_4_);}
	.st5{display:none;}
	.st6{display:inline;}
	.st7{fill:none;stroke:#9A8C98;stroke-width:7;stroke-miterlimit:10;}
</style>
<g>
	<g>
		<g>
			<path class="st0" d="M13.16,48.29c21.36,0.22,42.71,0.72,64.06,1.36c21.35,0.64,42.7,1.41,64.05,2.2
				c11.01,0.41,22.04,0.92,32.97,2.38c-2.66-0.36-5.32-0.71-7.98-1.07c10.61,1.45,21.1,3.84,31.03,7.93
				c2.66-19.64,5.32-39.29,7.98-58.93c-24.8,2.98-49.59,5.95-74.36,9.13c-27.26,3.5-54.5,7.19-81.67,11.37
				c-13.87,2.13-27.71,4.4-41.53,6.82c-3.9,0.93-7.3,2.72-10.2,5.37c-3.27,2.12-5.84,4.92-7.73,8.42c-1.01,2.39-2.02,4.78-3.02,7.17
				c-1.25,3.99-1.43,7.98-0.54,11.96c0.01,2.71,0.69,5.23,2.05,7.57c1.21,3.72,3.28,6.94,6.2,9.65c2.02,1.56,4.05,3.13,6.07,4.69
				c4.68,2.71,9.73,4.08,15.14,4.1c16.93,1.08,33.86,2.15,50.79,3.23c16.93,1.08,33.86,2.15,50.79,3.23
				c9.36,0.6,18.79,0.93,28.1,2.17c-2.66-0.36-5.32-0.71-7.98-1.07c3.52,0.49,7.02,1.14,10.46,2.05c0-19.29,0-38.57,0-57.86
				c-11.81,4.88-24.42,7.2-37.03,8.9c2.66-0.36,5.32-0.71,7.98-1.07c-11.98,1.6-24.01,2.85-35.95,4.7
				c-9.37,1.45-18.68,3.45-27.59,6.76c-2.39,1.01-4.78,2.02-7.17,3.02c-3.5,1.89-6.3,4.46-8.42,7.73c-1.86,1.87-3.14,4.08-3.86,6.62
				c-1.88,3.58-2.74,7.43-2.58,11.56c0.36,2.66,0.71,5.32,1.07,7.98c1.01,2.39,2.02,4.78,3.02,7.17c1.89,3.5,4.46,6.3,7.73,8.42
				c2.9,2.65,6.3,4.44,10.2,5.37c8.55,1.97,17.19,3.57,25.87,4.85c11.09,1.64,22.22,3.04,33.39,3.99
				c17.46,1.49,34.98,2.03,52.5,2.22c9.95,0.11,19.89,0.11,29.84,0.1c4.13,0.16,7.98-0.71,11.56-2.58c3.72-1.21,6.94-3.28,9.65-6.2
				c2.93-2.72,4.99-5.94,6.2-9.65c1.88-3.58,2.74-7.43,2.58-11.56c-0.36-2.66-0.71-5.32-1.07-7.98c-1.43-5.08-4-9.49-7.72-13.24
				c-2.02-1.56-4.05-3.13-6.07-4.69c-4.68-2.71-9.73-4.08-15.14-4.1c-26.2-0.48-52.41-0.41-78.59,0.57
				c-26.16,0.98-52.29,2.86-78.29,5.98c-17.09,2.05-34.14,4.45-51.09,7.46c-3.9,0.93-7.3,2.72-10.2,5.37
				c-3.27,2.12-5.84,4.92-7.73,8.42c-1.01,2.39-2.02,4.78-3.02,7.17c-1.25,3.99-1.43,7.98-0.54,11.96c0.01,2.71,0.69,5.23,2.05,7.57
				c1.21,3.72,3.28,6.94,6.2,9.65c2.02,1.56,4.05,3.13,6.07,4.69c4.68,2.71,9.73,4.08,15.14,4.1c20.38,0.74,40.76,1.52,61.13,2.62
				c20.28,1.09,40.54,2.48,60.76,4.45c11.42,1.11,22.83,2.41,34.21,3.94c-2.66-0.36-5.32-0.71-7.98-1.07
				c18.94,2.55,37.8,5.75,56.47,9.81c5.33,1.16,10.64,2.39,15.94,3.69c-4.41-16.71-8.83-33.43-13.24-50.14
				c-0.77,0.87-1.61,1.66-2.53,2.37c2.02-1.56,4.05-3.13,6.07-4.69c-1.56,1.17-3.25,2.08-5.04,2.85c2.39-1.01,4.78-2.02,7.17-3.02
				c-5.14,2.13-10.73,3.16-16.14,4.35c-5.97,1.31-11.97,2.51-17.98,3.63c-12.19,2.27-24.44,4.21-36.71,6.03
				c-24.45,3.63-48.97,6.82-73.27,11.38c-13.67,2.56-27.25,5.57-40.65,9.3c-2.39,1.01-4.78,2.02-7.17,3.02
				c-3.5,1.89-6.3,4.46-8.42,7.73c-1.86,1.87-3.14,4.08-3.86,6.62c-1.88,3.58-2.74,7.43-2.58,11.56c0.36,2.66,0.71,5.32,1.07,7.98
				c1.01,2.39,2.02,4.78,3.02,7.17c1.89,3.5,4.46,6.3,7.73,8.42c2.9,2.65,6.3,4.44,10.2,5.37c33.3,6.25,67.14,8.82,100.95,10.17
				c8.91,0.36,17.81,0.65,26.72,0.93c4.13,0.16,7.98-0.71,11.56-2.58c3.72-1.21,6.94-3.28,9.65-6.2c1.56-2.02,3.13-4.05,4.69-6.07
				c2.19-3.44,3.38-7.16,3.56-11.15c0.71-2.66,0.71-5.32,0-7.98c-0.18-3.99-1.37-7.71-3.56-11.15c-1.56-2.02-3.13-4.05-4.69-6.07
				c-3.74-3.72-8.16-6.29-13.24-7.72c-25.89-4-51.87-7.52-77.89-10.54c-23.53-2.74-47.11-5.03-70.72-6.88
				c-13.3-1.04-26.62-1.94-39.94-2.69c0,20,0,40,0,60c18.2-1.05,36.42-1.66,54.65-1.65c18.23,0.01,36.46,0.64,54.63,2.09
				c10.2,0.81,20.37,1.88,30.51,3.24c-2.66-0.36-5.32-0.71-7.98-1.07c23.02,3.1,45.85,7.69,68.15,14.19
				c6.34,1.85,12.63,3.85,18.88,6c5.32,1.43,10.63,1.43,15.95,0c3.9-0.93,7.3-2.72,10.2-5.37c3.27-2.12,5.84-4.92,7.73-8.42
				c2.71-4.68,4.08-9.73,4.1-15.14c-0.58-25-1.16-50.01-2.26-75c-1.09-24.93-2.85-49.79-5.3-74.62
				c-1.34-13.62-2.46-27.38-0.65-41.01c-0.36,2.66-0.71,5.32-1.07,7.98c0.2-1.45,0.43-2.9,0.7-4.34c1.43-5.32,1.43-10.63,0-15.95
				c-1.43-5.08-4-9.49-7.72-13.24c-3.74-3.72-8.16-6.29-13.24-7.72c-5.32-1.43-10.63-1.43-15.95,0c-1.33,0.22-2.66,0.43-3.98,0.65
				c-3.9,0.93-7.3,2.72-10.2,5.37c-3.27,2.12-5.84,4.92-7.73,8.42c-2.19,3.44-3.38,7.16-3.56,11.15c-0.89,3.99-0.71,7.98,0.54,11.96
				c1.01,2.39,2.02,4.78,3.02,7.17c2.67,4.51,6.25,8.1,10.76,10.76c2.39,1.01,4.78,2.02,7.17,3.02c5.32,1.43,10.63,1.43,15.95,0
				c1.33-0.22,2.66-0.43,3.98-0.65c-12.3-12.3-24.6-24.6-36.9-36.9c-1.58,8.61-2.63,17.4-2.72,26.16
				c-0.06,6.29,0.3,12.58,0.83,18.84c1.05,12.58,2.45,25.12,3.41,37.71c1.95,25.6,3.04,51.27,3.81,76.93
				c0.43,14.43,0.77,28.86,1.11,43.3c12.66-9.64,25.32-19.29,37.98-28.93c-28.23-9.73-57.46-16.19-87.03-20.19
				c-17.34-2.34-34.69-4.24-52.16-5.25c-14.98-0.86-29.98-1.21-44.98-1.14c-16.89,0.07-33.77,0.67-50.62,1.64
				c-4.13-0.16-7.98,0.71-11.56,2.58c-3.72,1.21-6.94,3.28-9.65,6.2c-2.93,2.72-4.99,5.94-6.2,9.65c-1.88,3.58-2.74,7.43-2.58,11.56
				c0.36,2.66,0.71,5.32,1.07,7.98c1.43,5.08,4,9.49,7.72,13.24c2.02,1.56,4.05,3.13,6.07,4.69c4.68,2.71,9.73,4.08,15.14,4.1
				c18.74,1.06,37.46,2.41,56.15,4.03c18.61,1.62,37.2,3.51,55.76,5.68c10.52,1.23,21.03,2.55,31.53,3.96
				c-2.66-0.36-5.32-0.71-7.98-1.07c12.4,1.67,24.78,3.45,37.15,5.37c2.66-19.64,5.32-39.29,7.98-58.93
				c-25.31-0.82-50.65-1.64-75.88-4.01c-7.14-0.67-14.26-1.47-21.37-2.42c2.66,0.36,5.32,0.71,7.98,1.07
				c-7.51-1.01-15-2.2-22.45-3.6c0,19.29,0,38.57,0,57.86c25.43-7.08,51.48-11.5,77.56-15.38c26.12-3.89,52.34-7.26,78.28-12.32
				c7.14-1.39,14.29-2.87,21.35-4.61c5.34-1.32,10.18-3.38,15.25-5.64c1.35-0.6,2.67-1.31,3.88-2.16c2.59-1.82,5.2-3.79,7.59-5.87
				c0.59-0.51,1.13-1.06,1.64-1.64c3.72-3.74,6.29-8.16,7.72-13.24c1.43-5.32,1.43-10.63,0-15.95
				c-2.72-9.87-10.88-18.48-20.95-20.95c-31.54-7.75-63.66-12.76-95.89-16.52c-29.81-3.48-59.76-5.51-89.73-6.97
				c-16.95-0.83-33.9-1.47-50.86-2.09c2.66,19.64,5.32,39.29,7.98,58.93c10.57-1.88,21.18-3.52,31.81-4.96
				c-2.66,0.36-5.32,0.71-7.98,1.07c21.77-2.92,43.65-4.94,65.57-6.25c21.78-1.3,43.6-1.91,65.42-2.01
				c12.4-0.06,24.79,0.05,37.19,0.28c0-20,0-40,0-60c-26.81,0.01-53.66,0.01-80.39-2.16c-7.53-0.61-15.05-1.4-22.54-2.4
				c2.66,0.36,5.32,0.71,7.98,1.07c-10.31-1.39-20.55-3.2-30.69-5.53c0,19.29,0,38.57,0,57.86c10.88-4.04,22.32-6.1,33.79-7.65
				c-2.66,0.36-5.32,0.71-7.98,1.07c10.36-1.39,20.74-2.56,31.09-3.99c7.78-1.07,15.54-2.39,23.12-4.45
				c4.28-1.16,8.49-2.57,12.58-4.26c2.39-1.01,4.78-2.02,7.17-3.02c3.5-1.89,6.3-4.46,8.42-7.73c1.86-1.87,3.14-4.08,3.86-6.62
				c1.88-3.58,2.74-7.43,2.58-11.56c-0.36-2.66-0.71-5.32-1.07-7.98c-1.01-2.39-2.02-4.78-3.02-7.17c-1.89-3.5-4.46-6.3-7.73-8.42
				c-2.9-2.65-6.3-4.44-10.2-5.37c-6.73-1.78-13.71-2.58-20.6-3.39c-4.43-0.52-8.87-0.81-13.32-1.1
				c-9.17-0.58-18.35-1.17-27.52-1.75c-18.44-1.17-36.89-2.35-55.33-3.52c-10.44-0.66-20.89-1.33-31.33-1.99
				C18.34,48.06,21,67.7,23.66,87.34C47.68,83.13,71.78,79.41,95.92,76c6.78-0.96,13.57-1.89,20.35-2.8
				c-2.66,0.36-5.32,0.71-7.98,1.07c25.16-3.38,50.37-6.49,75.57-9.53c7.13-0.86,14.26-1.72,21.39-2.57
				c4.13,0.16,7.98-0.71,11.56-2.58c3.72-1.21,6.94-3.28,9.65-6.2c1.56-2.02,3.13-4.05,4.69-6.07c2.19-3.44,3.38-7.16,3.56-11.15
				c0.71-2.66,0.71-5.32,0-7.98c-0.18-3.99-1.37-7.71-3.56-11.15c-1.56-2.02-3.13-4.05-4.69-6.07c-3.74-3.72-8.16-6.29-13.24-7.72
				c-13.48-5.55-27.81-7.7-42.2-9.41c-11.89-1.41-23.88-1.77-35.83-2.2c-26.05-0.95-52.1-1.88-78.16-2.54
				c-14.63-0.37-29.25-0.65-43.88-0.8C9.03-11.87,5.18-11.01,1.6-9.13c-3.72,1.21-6.94,3.28-9.65,6.2c-2.93,2.72-4.99,5.94-6.2,9.65
				c-1.88,3.58-2.74,7.43-2.58,11.56c0.36,2.66,0.71,5.32,1.07,7.98c1.43,5.08,4,9.49,7.72,13.24c2.02,1.56,4.05,3.13,6.07,4.69
				C2.7,46.91,7.75,48.27,13.16,48.29L13.16,48.29z"/>
		</g>
	</g>
	<g>
		
			<linearGradient id="SVGID_1_" gradientUnits="userSpaceOnUse" x1="242.9396" y1="67.0538" x2="364.4591" y2="-54.4658" gradientTransform="matrix(1 0 0 -1 -206 104)">
			<stop  offset="0" style="stop-color:#5380A7"/>
			<stop  offset="0.4075" style="stop-color:#507BA4"/>
			<stop  offset="0.7829" style="stop-color:#49719F"/>
			<stop  offset="1" style="stop-color:#42679A"/>
		</linearGradient>
		<path class="st1" d="M99.66,114.96c8.36,0.18,15.12-6.5,15.3-14.63c0.18-8.37-6.58-15.3-14.96-15.29
			c-8.19,0-14.85,6.59-14.96,14.74C84.92,108.15,91.62,114.79,99.66,114.96z"/>
		
			<linearGradient id="SVGID_2_" gradientUnits="userSpaceOnUse" x1="237.8888" y1="62.003" x2="359.4084" y2="-59.5166" gradientTransform="matrix(1 0 0 -1 -206 104)">
			<stop  offset="0" style="stop-color:#5380A7"/>
			<stop  offset="0.4075" style="stop-color:#507BA4"/>
			<stop  offset="0.7829" style="stop-color:#49719F"/>
			<stop  offset="1" style="stop-color:#42679A"/>
		</linearGradient>
		<path class="st2" d="M122.79,102.74c-0.39,3.3-1.45,6.37-3.19,9.2c-1.73,2.84-3.98,5.19-6.73,7.06
			c-7.13,4.86-16.51,5.28-24.07,1.04c-3.82-2.14-6.82-5.13-8.92-8.99c-3.12-5.74-3.62-11.78-1.79-18.03c-2.34,0-4.67,0-7.03,0v0.2
			c0,10.93,0,21.86,0,32.78c0,1.57,1.36,2.92,2.93,2.92c17.33,0,34.66,0,51.99,0c1.59,0,2.94-1.35,2.94-2.93
			c0-10.91,0-21.83,0-32.74v-0.23h-7.05C122.87,96.21,123.18,99.44,122.79,102.74z"/>
		
			<linearGradient id="SVGID_3_" gradientUnits="userSpaceOnUse" x1="266.3865" y1="90.5007" x2="387.906" y2="-31.0189" gradientTransform="matrix(1 0 0 -1 -206 104)">
			<stop  offset="0" style="stop-color:#5380A7"/>
			<stop  offset="0.4075" style="stop-color:#507BA4"/>
			<stop  offset="0.7829" style="stop-color:#49719F"/>
			<stop  offset="1" style="stop-color:#42679A"/>
		</linearGradient>
		<path class="st3" d="M116.15,80.05c0.42,1.23,1.55,1.98,2.93,1.99c1.12,0,2.24,0,3.36,0v-0.01c1.21,0,2.43,0.02,3.65,0
			c1.56-0.04,2.84-1.38,2.84-2.95c0-2.33,0-4.66,0-6.99c0-1.67-1.32-3-2.99-3c-2.33,0-4.65,0-6.98,0c-1.67,0-2.99,1.34-2.99,3.01
			c0,2.31-0.01,4.62,0.01,6.93C115.97,79.37,116.04,79.72,116.15,80.05z"/>
		
			<linearGradient id="SVGID_4_" gradientUnits="userSpaceOnUse" x1="242.9429" y1="67.0571" x2="364.4625" y2="-54.4625" gradientTransform="matrix(1 0 0 -1 -206 104)">
			<stop  offset="0" style="stop-color:#5380A7"/>
			<stop  offset="0.4075" style="stop-color:#507BA4"/>
			<stop  offset="0.7829" style="stop-color:#49719F"/>
			<stop  offset="1" style="stop-color:#42679A"/>
		</linearGradient>
		<path class="st4" d="M100,26.28c-40.71,0-73.72,33.01-73.72,73.72s33.01,73.72,73.72,73.72s73.72-33.01,73.72-73.72
			S140.71,26.28,100,26.28z M136.92,129.55c-0.05,0.33-0.1,0.66-0.16,0.99c-0.59,3.03-3.05,5.55-6.07,6.19
			c-0.38,0.08-0.76,0.14-1.15,0.2H70.46c-0.16-0.02-0.32-0.05-0.47-0.07c-3.25-0.42-5.98-2.9-6.7-6.1
			c-0.08-0.37-0.14-0.75-0.21-1.13V70.38c0.02-0.14,0.05-0.28,0.07-0.41c0.47-3.32,2.89-5.95,6.16-6.69
			c0.35-0.08,0.71-0.13,1.07-0.19h59.25c0.14,0.02,0.27,0.06,0.41,0.07c3.35,0.46,6.08,3.03,6.73,6.34
			c0.06,0.32,0.11,0.65,0.16,0.97L136.92,129.55L136.92,129.55z"/>
	</g>
</g>
<g class="st5">
	<g class="st6">
		<path class="st0" d="M6.12,109.42c0,18.85,0,37.71,0,56.56c0,5.4,0,10.8,0,16.2c0,3.22,5,3.22,5,0c0-18.85,0-37.71,0-56.56
			c0-5.4,0-10.8,0-16.2C11.12,106.2,6.12,106.2,6.12,109.42L6.12,109.42z"/>
	</g>
</g>
<rect class="st7" width="200" height="200"/>
<g>
	<g>
		<path class="st0" d="M10.87,17.45c21.43,2.09,42.91,3.7,64.41,4.81c21.5,1.11,43.03,1.72,64.56,1.84
			c12.09,0.07,24.18-0.02,36.27-0.27c3.21-0.06,3.22-5.06,0-5c-21.53,0.43-43.06,0.38-64.59-0.18C90,18.1,68.49,17.05,47.01,15.51
			c-12.06-0.87-24.11-1.89-36.14-3.06c-1.35-0.13-2.5,1.24-2.5,2.5C8.37,16.41,9.52,17.31,10.87,17.45L10.87,17.45z"/>
	</g>
</g>
</svg>
